<?xml version="1.0" encoding="utf-8" standalone="no"?>
<!DOCTYPE svg PUBLIC "-//W3C//DTD SVG 1.1//EN"
  "http://www.w3.org/Graphics/SVG/1.1/DTD/svg11.dtd">
<svg xmlns:xlink="http://www.w3.org/1999/xlink" width="460.8pt" height="345.6pt" viewBox="0 0 460.8 345.6" xmlns="http://www.w3.org/2000/svg" version="1.1">
 <metadata>
  <rdf:RDF xmlns:dc="http://purl.org/dc/elements/1.1/" xmlns:cc="http://creativecommons.org/ns#" xmlns:rdf="http://www.w3.org/1999/02/22-rdf-syntax-ns#">
   <cc:Work>
    <dc:type rdf:resource="http://purl.org/dc/dcmitype/StillImage"/>
    <dc:date>2024-06-21T01:13:37.898507</dc:date>
    <dc:format>image/svg+xml</dc:format>
    <dc:creator>
     <cc:Agent>
      <dc:title>Matplotlib v3.7.5, https://matplotlib.org/</dc:title>
     </cc:Agent>
    </dc:creator>
   </cc:Work>
  </rdf:RDF>
 </metadata>
 <defs>
  <style type="text/css">*{stroke-linejoin: round; stroke-linecap: butt}</style>
 </defs>
 <g id="figure_1">
  <g id="patch_1">
   <path d="M 0 345.6 
L 460.8 345.6 
L 460.8 0 
L 0 0 
z
" style="fill: #ffffff"/>
  </g>
  <g id="axes_1">
   <g id="patch_2">
    <path d="M 47.973928 32.232275 
Q 230.401266 108.835371 411.797764 185.005607 
" clip-path="url(#p3a8156ebbd)" style="fill: none; stroke: #4c4c4c; stroke-linecap: round"/>
    <path d="M 410.923648 183.987806 
L 411.797764 185.005607 
L 410.459053 185.09422 
" clip-path="url(#p3a8156ebbd)" style="fill: none; stroke: #4c4c4c; stroke-linecap: round"/>
   </g>
   <g id="patch_3">
    <path d="M 47.828654 32.558671 
Q 230.401061 118.241979 411.961352 203.450289 
" clip-path="url(#p3a8156ebbd)" style="fill: none; stroke: #4c4c4c; stroke-linecap: round"/>
    <path d="M 411.129946 202.39731 
L 411.961352 203.450289 
L 410.620125 203.483626 
" clip-path="url(#p3a8156ebbd)" style="fill: none; stroke: #4c4c4c; stroke-linecap: round"/>
   </g>
   <g id="patch_4">
    <path d="M 47.671759 32.864685 
Q 230.397829 127.646996 412.131438 221.914504 
" clip-path="url(#p3a8156ebbd)" style="fill: none; stroke: #4c4c4c; stroke-linecap: round"/>
    <path d="M 411.342489 220.82935 
L 412.131438 221.914504 
L 410.789945 221.894571 
" clip-path="url(#p3a8156ebbd)" style="fill: none; stroke: #4c4c4c; stroke-linecap: round"/>
   </g>
   <g id="patch_5">
    <path d="M 48.10758 50.700502 
Q 230.401279 118.241955 411.64659 185.39497 
" clip-path="url(#p3a8156ebbd)" style="fill: none; stroke: #4c4c4c; stroke-linecap: round"/>
    <path d="M 410.7298 184.415432 
L 411.64659 185.39497 
L 410.312886 185.54068 
" clip-path="url(#p3a8156ebbd)" style="fill: none; stroke: #4c4c4c; stroke-linecap: round"/>
   </g>
   <g id="patch_6">
    <path d="M 48.345829 68.776163 
Q 230.400805 118.241699 411.376864 167.414087 
" clip-path="url(#p3a8156ebbd)" style="fill: none; stroke: #4c4c4c; stroke-linecap: round"/>
    <path d="M 410.376168 166.520438 
L 411.376864 167.414087 
L 410.061527 167.678454 
" clip-path="url(#p3a8156ebbd)" style="fill: none; stroke: #4c4c4c; stroke-linecap: round"/>
   </g>
   <g id="patch_7">
    <path d="M 48.520158 124.420259 
Q 230.399033 155.867879 411.176222 187.125012 
" clip-path="url(#p3a8156ebbd)" style="fill: none; stroke: #4c4c4c; stroke-linecap: round"/>
    <path d="M 410.095993 186.329333 
L 411.176222 187.125012 
L 409.891541 187.511788 
" clip-path="url(#p3a8156ebbd)" style="fill: none; stroke: #4c4c4c; stroke-linecap: round"/>
   </g>
   <g id="patch_8">
    <path d="M 48.345829 125.216011 
Q 230.400805 174.681547 411.376864 223.853934 
" clip-path="url(#p3a8156ebbd)" style="fill: none; stroke: #4c4c4c; stroke-linecap: round"/>
    <path d="M 410.376168 222.960285 
L 411.376864 223.853934 
L 410.061527 224.118302 
" clip-path="url(#p3a8156ebbd)" style="fill: none; stroke: #4c4c4c; stroke-linecap: round"/>
   </g>
   <g id="patch_9">
    <path d="M 48.624755 161.211456 
Q 230.401419 174.681433 411.063106 188.068789 
" clip-path="url(#p3a8156ebbd)" style="fill: none; stroke: #4c4c4c; stroke-linecap: round"/>
    <path d="M 409.910726 187.38175 
L 411.063106 188.068789 
L 409.822047 188.578469 
" clip-path="url(#p3a8156ebbd)" style="fill: none; stroke: #4c4c4c; stroke-linecap: round"/>
   </g>
   <g id="patch_10">
    <path d="M 48.520158 162.046824 
Q 230.399033 193.494444 411.176222 224.751577 
" clip-path="url(#p3a8156ebbd)" style="fill: none; stroke: #4c4c4c; stroke-linecap: round"/>
    <path d="M 410.095993 223.955898 
L 411.176222 224.751577 
L 409.891541 225.138353 
" clip-path="url(#p3a8156ebbd)" style="fill: none; stroke: #4c4c4c; stroke-linecap: round"/>
   </g>
   <g id="patch_11">
    <path d="M 48.642187 179.598443 
Q 230.39898 184.087944 411.038079 188.549838 
" clip-path="url(#p3a8156ebbd)" style="fill: none; stroke: #4c4c4c; stroke-linecap: round"/>
    <path d="M 409.85326 187.920389 
L 411.038079 188.549838 
L 409.823629 189.120024 
" clip-path="url(#p3a8156ebbd)" style="fill: none; stroke: #4c4c4c; stroke-linecap: round"/>
   </g>
   <g id="patch_12">
    <path d="M 48.584078 197.136139 
Q 230.400488 174.681268 411.107294 152.363436 
" clip-path="url(#p3a8156ebbd)" style="fill: none; stroke: #4c4c4c; stroke-linecap: round"/>
    <path d="M 409.842799 151.915047 
L 411.107294 152.363436 
L 409.989885 153.105998 
" clip-path="url(#p3a8156ebbd)" style="fill: none; stroke: #4c4c4c; stroke-linecap: round"/>
   </g>
   <g id="patch_13">
    <path d="M 48.624755 198.838021 
Q 230.401419 212.307998 411.063106 225.695354 
" clip-path="url(#p3a8156ebbd)" style="fill: none; stroke: #4c4c4c; stroke-linecap: round"/>
    <path d="M 409.910726 225.008316 
L 411.063106 225.695354 
L 409.822047 226.205034 
" clip-path="url(#p3a8156ebbd)" style="fill: none; stroke: #4c4c4c; stroke-linecap: round"/>
   </g>
   <g id="patch_14">
    <path d="M 48.624755 216.371124 
Q 230.401419 202.901147 411.063106 189.513791 
" clip-path="url(#p3a8156ebbd)" style="fill: none; stroke: #4c4c4c; stroke-linecap: round"/>
    <path d="M 409.822047 189.004111 
L 411.063106 189.513791 
L 409.910726 190.20083 
" clip-path="url(#p3a8156ebbd)" style="fill: none; stroke: #4c4c4c; stroke-linecap: round"/>
   </g>
   <g id="patch_15">
    <path d="M 48.642187 217.225008 
Q 230.39898 221.714509 411.038079 226.176403 
" clip-path="url(#p3a8156ebbd)" style="fill: none; stroke: #4c4c4c; stroke-linecap: round"/>
    <path d="M 409.85326 225.546955 
L 411.038079 226.176403 
L 409.823629 226.746589 
" clip-path="url(#p3a8156ebbd)" style="fill: none; stroke: #4c4c4c; stroke-linecap: round"/>
   </g>
   <g id="patch_16">
    <path d="M 47.973928 288.910458 
Q 230.401266 212.307361 411.797764 136.137125 
" clip-path="url(#p3a8156ebbd)" style="fill: none; stroke: #4c4c4c; stroke-linecap: round"/>
    <path d="M 410.459053 136.048513 
L 411.797764 136.137125 
L 410.923648 137.154927 
" clip-path="url(#p3a8156ebbd)" style="fill: none; stroke: #4c4c4c; stroke-linecap: round"/>
   </g>
   <g id="patch_17">
    <path d="M 48.438804 290.385413 
Q 230.400039 249.93445 411.269883 209.726109 
" clip-path="url(#p3a8156ebbd)" style="fill: none; stroke: #4c4c4c; stroke-linecap: round"/>
    <path d="M 409.968274 209.400816 
L 411.269883 209.726109 
L 410.228684 210.57222 
" clip-path="url(#p3a8156ebbd)" style="fill: none; stroke: #4c4c4c; stroke-linecap: round"/>
   </g>
   <g id="patch_18">
    <path d="M 48.520158 290.788887 
Q 230.399033 259.341267 411.176222 228.084133 
" clip-path="url(#p3a8156ebbd)" style="fill: none; stroke: #4c4c4c; stroke-linecap: round"/>
    <path d="M 409.891541 227.697357 
L 411.176222 228.084133 
L 410.095993 228.879812 
" clip-path="url(#p3a8156ebbd)" style="fill: none; stroke: #4c4c4c; stroke-linecap: round"/>
   </g>
   <g id="PathCollection_1">
    <path d="M 39.986777 37.538643 
C 42.283503 37.538643 44.486471 36.626144 46.110501 35.002113 
C 47.734532 33.378082 48.647031 31.175115 48.647031 28.878389 
C 48.647031 26.581662 47.734532 24.378695 46.110501 22.754664 
C 44.486471 21.130634 42.283503 20.218135 39.986777 20.218135 
C 37.690051 20.218135 35.487083 21.130634 33.863053 22.754664 
C 32.239022 24.378695 31.326523 26.581662 31.326523 28.878389 
C 31.326523 31.175115 32.239022 33.378082 33.863053 35.002113 
C 35.487083 36.626144 37.690051 37.538643 39.986777 37.538643 
z
" clip-path="url(#p3a8156ebbd)" style="fill: #ffff00; stroke: #000000"/>
    <path d="M 39.986777 56.351925 
C 42.283503 56.351925 44.486471 55.439426 46.110501 53.815396 
C 47.734532 52.191365 48.647031 49.988397 48.647031 47.691671 
C 48.647031 45.394945 47.734532 43.191978 46.110501 41.567947 
C 44.486471 39.943916 42.283503 39.031417 39.986777 39.031417 
C 37.690051 39.031417 35.487083 39.943916 33.863053 41.567947 
C 32.239022 43.191978 31.326523 45.394945 31.326523 47.691671 
C 31.326523 49.988397 32.239022 52.191365 33.863053 53.815396 
C 35.487083 55.439426 37.690051 56.351925 39.986777 56.351925 
z
" clip-path="url(#p3a8156ebbd)" style="fill: #ffff00; stroke: #000000"/>
    <path d="M 39.986777 75.165208 
C 42.283503 75.165208 44.486471 74.252709 46.110501 72.628678 
C 47.734532 71.004647 48.647031 68.80168 48.647031 66.504954 
C 48.647031 64.208228 47.734532 62.00526 46.110501 60.381229 
C 44.486471 58.757199 42.283503 57.8447 39.986777 57.8447 
C 37.690051 57.8447 35.487083 58.757199 33.863053 60.381229 
C 32.239022 62.00526 31.326523 64.208228 31.326523 66.504954 
C 31.326523 68.80168 32.239022 71.004647 33.863053 72.628678 
C 35.487083 74.252709 37.690051 75.165208 39.986777 75.165208 
z
" clip-path="url(#p3a8156ebbd)" style="fill: #ffff00; stroke: #000000"/>
    <path d="M 39.986777 93.97849 
C 42.283503 93.97849 44.486471 93.065991 46.110501 91.441961 
C 47.734532 89.81793 48.647031 87.614962 48.647031 85.318236 
C 48.647031 83.02151 47.734532 80.818543 46.110501 79.194512 
C 44.486471 77.570481 42.283503 76.657982 39.986777 76.657982 
C 37.690051 76.657982 35.487083 77.570481 33.863053 79.194512 
C 32.239022 80.818543 31.326523 83.02151 31.326523 85.318236 
C 31.326523 87.614962 32.239022 89.81793 33.863053 91.441961 
C 35.487083 93.065991 37.690051 93.97849 39.986777 93.97849 
z
" clip-path="url(#p3a8156ebbd)" style="fill: #ffff00; stroke: #000000"/>
    <path d="M 39.986777 112.791773 
C 42.283503 112.791773 44.486471 111.879274 46.110501 110.255243 
C 47.734532 108.631212 48.647031 106.428245 48.647031 104.131519 
C 48.647031 101.834793 47.734532 99.631825 46.110501 98.007794 
C 44.486471 96.383764 42.283503 95.471265 39.986777 95.471265 
C 37.690051 95.471265 35.487083 96.383764 33.863053 98.007794 
C 32.239022 99.631825 31.326523 101.834793 31.326523 104.131519 
C 31.326523 106.428245 32.239022 108.631212 33.863053 110.255243 
C 35.487083 111.879274 37.690051 112.791773 39.986777 112.791773 
z
" clip-path="url(#p3a8156ebbd)" style="fill: #ffff00; stroke: #000000"/>
    <path d="M 39.986777 131.605055 
C 42.283503 131.605055 44.486471 130.692556 46.110501 129.068526 
C 47.734532 127.444495 48.647031 125.241528 48.647031 122.944801 
C 48.647031 120.648075 47.734532 118.445108 46.110501 116.821077 
C 44.486471 115.197046 42.283503 114.284547 39.986777 114.284547 
C 37.690051 114.284547 35.487083 115.197046 33.863053 116.821077 
C 32.239022 118.445108 31.326523 120.648075 31.326523 122.944801 
C 31.326523 125.241528 32.239022 127.444495 33.863053 129.068526 
C 35.487083 130.692556 37.690051 131.605055 39.986777 131.605055 
z
" clip-path="url(#p3a8156ebbd)" style="fill: #ffff00; stroke: #000000"/>
    <path d="M 39.986777 150.418338 
C 42.283503 150.418338 44.486471 149.505839 46.110501 147.881808 
C 47.734532 146.257778 48.647031 144.05481 48.647031 141.758084 
C 48.647031 139.461358 47.734532 137.25839 46.110501 135.634359 
C 44.486471 134.010329 42.283503 133.09783 39.986777 133.09783 
C 37.690051 133.09783 35.487083 134.010329 33.863053 135.634359 
C 32.239022 137.25839 31.326523 139.461358 31.326523 141.758084 
C 31.326523 144.05481 32.239022 146.257778 33.863053 147.881808 
C 35.487083 149.505839 37.690051 150.418338 39.986777 150.418338 
z
" clip-path="url(#p3a8156ebbd)" style="fill: #ffff00; stroke: #000000"/>
    <path d="M 39.986777 169.23162 
C 42.283503 169.23162 44.486471 168.319121 46.110501 166.695091 
C 47.734532 165.07106 48.647031 162.868093 48.647031 160.571366 
C 48.647031 158.27464 47.734532 156.071673 46.110501 154.447642 
C 44.486471 152.823611 42.283503 151.911112 39.986777 151.911112 
C 37.690051 151.911112 35.487083 152.823611 33.863053 154.447642 
C 32.239022 156.071673 31.326523 158.27464 31.326523 160.571366 
C 31.326523 162.868093 32.239022 165.07106 33.863053 166.695091 
C 35.487083 168.319121 37.690051 169.23162 39.986777 169.23162 
z
" clip-path="url(#p3a8156ebbd)" style="fill: #ffff00; stroke: #000000"/>
    <path d="M 39.986777 188.044903 
C 42.283503 188.044903 44.486471 187.132404 46.110501 185.508373 
C 47.734532 183.884343 48.647031 181.681375 48.647031 179.384649 
C 48.647031 177.087923 47.734532 174.884955 46.110501 173.260925 
C 44.486471 171.636894 42.283503 170.724395 39.986777 170.724395 
C 37.690051 170.724395 35.487083 171.636894 33.863053 173.260925 
C 32.239022 174.884955 31.326523 177.087923 31.326523 179.384649 
C 31.326523 181.681375 32.239022 183.884343 33.863053 185.508373 
C 35.487083 187.132404 37.690051 188.044903 39.986777 188.044903 
z
" clip-path="url(#p3a8156ebbd)" style="fill: #ffff00; stroke: #000000"/>
    <path d="M 39.986777 206.858185 
C 42.283503 206.858185 44.486471 205.945686 46.110501 204.321656 
C 47.734532 202.697625 48.647031 200.494658 48.647031 198.197931 
C 48.647031 195.901205 47.734532 193.698238 46.110501 192.074207 
C 44.486471 190.450176 42.283503 189.537677 39.986777 189.537677 
C 37.690051 189.537677 35.487083 190.450176 33.863053 192.074207 
C 32.239022 193.698238 31.326523 195.901205 31.326523 198.197931 
C 31.326523 200.494658 32.239022 202.697625 33.863053 204.321656 
C 35.487083 205.945686 37.690051 206.858185 39.986777 206.858185 
z
" clip-path="url(#p3a8156ebbd)" style="fill: #ffff00; stroke: #000000"/>
    <path d="M 39.986777 225.671468 
C 42.283503 225.671468 44.486471 224.758969 46.110501 223.134938 
C 47.734532 221.510908 48.647031 219.30794 48.647031 217.011214 
C 48.647031 214.714488 47.734532 212.51152 46.110501 210.88749 
C 44.486471 209.263459 42.283503 208.35096 39.986777 208.35096 
C 37.690051 208.35096 35.487083 209.263459 33.863053 210.88749 
C 32.239022 212.51152 31.326523 214.714488 31.326523 217.011214 
C 31.326523 219.30794 32.239022 221.510908 33.863053 223.134938 
C 35.487083 224.758969 37.690051 225.671468 39.986777 225.671468 
z
" clip-path="url(#p3a8156ebbd)" style="fill: #ffff00; stroke: #000000"/>
    <path d="M 39.986777 244.48475 
C 42.283503 244.48475 44.486471 243.572252 46.110501 241.948221 
C 47.734532 240.32419 48.647031 238.121223 48.647031 235.824496 
C 48.647031 233.52777 47.734532 231.324803 46.110501 229.700772 
C 44.486471 228.076741 42.283503 227.164242 39.986777 227.164242 
C 37.690051 227.164242 35.487083 228.076741 33.863053 229.700772 
C 32.239022 231.324803 31.326523 233.52777 31.326523 235.824496 
C 31.326523 238.121223 32.239022 240.32419 33.863053 241.948221 
C 35.487083 243.572252 37.690051 244.48475 39.986777 244.48475 
z
" clip-path="url(#p3a8156ebbd)" style="fill: #ffff00; stroke: #000000"/>
    <path d="M 39.986777 263.298033 
C 42.283503 263.298033 44.486471 262.385534 46.110501 260.761503 
C 47.734532 259.137473 48.647031 256.934505 48.647031 254.637779 
C 48.647031 252.341053 47.734532 250.138085 46.110501 248.514055 
C 44.486471 246.890024 42.283503 245.977525 39.986777 245.977525 
C 37.690051 245.977525 35.487083 246.890024 33.863053 248.514055 
C 32.239022 250.138085 31.326523 252.341053 31.326523 254.637779 
C 31.326523 256.934505 32.239022 259.137473 33.863053 260.761503 
C 35.487083 262.385534 37.690051 263.298033 39.986777 263.298033 
z
" clip-path="url(#p3a8156ebbd)" style="fill: #ffff00; stroke: #000000"/>
    <path d="M 39.986777 282.111316 
C 42.283503 282.111316 44.486471 281.198817 46.110501 279.574786 
C 47.734532 277.950755 48.647031 275.747788 48.647031 273.451062 
C 48.647031 271.154335 47.734532 268.951368 46.110501 267.327337 
C 44.486471 265.703306 42.283503 264.790807 39.986777 264.790807 
C 37.690051 264.790807 35.487083 265.703306 33.863053 267.327337 
C 32.239022 268.951368 31.326523 271.154335 31.326523 273.451062 
C 31.326523 275.747788 32.239022 277.950755 33.863053 279.574786 
C 35.487083 281.198817 37.690051 282.111316 39.986777 282.111316 
z
" clip-path="url(#p3a8156ebbd)" style="fill: #ffff00; stroke: #000000"/>
    <path d="M 39.986777 300.924598 
C 42.283503 300.924598 44.486471 300.012099 46.110501 298.388068 
C 47.734532 296.764038 48.647031 294.56107 48.647031 292.264344 
C 48.647031 289.967618 47.734532 287.76465 46.110501 286.14062 
C 44.486471 284.516589 42.283503 283.60409 39.986777 283.60409 
C 37.690051 283.60409 35.487083 284.516589 33.863053 286.14062 
C 32.239022 287.76465 31.326523 289.967618 31.326523 292.264344 
C 31.326523 294.56107 32.239022 296.764038 33.863053 298.388068 
C 35.487083 300.012099 37.690051 300.924598 39.986777 300.924598 
z
" clip-path="url(#p3a8156ebbd)" style="fill: #ffff00; stroke: #000000"/>
    <path d="M 39.986777 319.737881 
C 42.283503 319.737881 44.486471 318.825382 46.110501 317.201351 
C 47.734532 315.57732 48.647031 313.374353 48.647031 311.077627 
C 48.647031 308.7809 47.734532 306.577933 46.110501 304.953902 
C 44.486471 303.329872 42.283503 302.417373 39.986777 302.417373 
C 37.690051 302.417373 35.487083 303.329872 33.863053 304.953902 
C 32.239022 306.577933 31.326523 308.7809 31.326523 311.077627 
C 31.326523 313.374353 32.239022 315.57732 33.863053 317.201351 
C 35.487083 318.825382 37.690051 319.737881 39.986777 319.737881 
z
" clip-path="url(#p3a8156ebbd)" style="fill: #ffff00; stroke: #000000"/>
    <path d="M 39.986777 338.551163 
C 42.283503 338.551163 44.486471 337.638664 46.110501 336.014633 
C 47.734532 334.390603 48.647031 332.187635 48.647031 329.890909 
C 48.647031 327.594183 47.734532 325.391215 46.110501 323.767185 
C 44.486471 322.143154 42.283503 321.230655 39.986777 321.230655 
C 37.690051 321.230655 35.487083 322.143154 33.863053 323.767185 
C 32.239022 325.391215 31.326523 327.594183 31.326523 329.890909 
C 31.326523 332.187635 32.239022 334.390603 33.863053 336.014633 
C 35.487083 337.638664 37.690051 338.551163 39.986777 338.551163 
z
" clip-path="url(#p3a8156ebbd)" style="fill: #ffff00; stroke: #000000"/>
    <path d="M 420.813223 141.011697 
C 423.109949 141.011697 425.312917 140.099198 426.936947 138.475167 
C 428.560978 136.851136 429.473477 134.648169 429.473477 132.351443 
C 429.473477 130.054716 428.560978 127.851749 426.936947 126.227718 
C 425.312917 124.603688 423.109949 123.691189 420.813223 123.691189 
C 418.516497 123.691189 416.313529 124.603688 414.689499 126.227718 
C 413.065468 127.851749 412.152969 130.054716 412.152969 132.351443 
C 412.152969 134.648169 413.065468 136.851136 414.689499 138.475167 
C 416.313529 140.099198 418.516497 141.011697 420.813223 141.011697 
z
" clip-path="url(#p3a8156ebbd)" style="fill: #0000ff; stroke: #000000"/>
    <path d="M 420.813223 159.824979 
C 423.109949 159.824979 425.312917 158.91248 426.936947 157.288449 
C 428.560978 155.664419 429.473477 153.461451 429.473477 151.164725 
C 429.473477 148.867999 428.560978 146.665031 426.936947 145.041001 
C 425.312917 143.41697 423.109949 142.504471 420.813223 142.504471 
C 418.516497 142.504471 416.313529 143.41697 414.689499 145.041001 
C 413.065468 146.665031 412.152969 148.867999 412.152969 151.164725 
C 412.152969 153.461451 413.065468 155.664419 414.689499 157.288449 
C 416.313529 158.91248 418.516497 159.824979 420.813223 159.824979 
z
" clip-path="url(#p3a8156ebbd)" style="fill: #0000ff; stroke: #000000"/>
    <path d="M 420.813223 178.638262 
C 423.109949 178.638262 425.312917 177.725763 426.936947 176.101732 
C 428.560978 174.477701 429.473477 172.274734 429.473477 169.978008 
C 429.473477 167.681281 428.560978 165.478314 426.936947 163.854283 
C 425.312917 162.230253 423.109949 161.317754 420.813223 161.317754 
C 418.516497 161.317754 416.313529 162.230253 414.689499 163.854283 
C 413.065468 165.478314 412.152969 167.681281 412.152969 169.978008 
C 412.152969 172.274734 413.065468 174.477701 414.689499 176.101732 
C 416.313529 177.725763 418.516497 178.638262 420.813223 178.638262 
z
" clip-path="url(#p3a8156ebbd)" style="fill: #0000ff; stroke: #000000"/>
    <path d="M 420.813223 197.451544 
C 423.109949 197.451544 425.312917 196.539045 426.936947 194.915015 
C 428.560978 193.290984 429.473477 191.088016 429.473477 188.79129 
C 429.473477 186.494564 428.560978 184.291596 426.936947 182.667566 
C 425.312917 181.043535 423.109949 180.131036 420.813223 180.131036 
C 418.516497 180.131036 416.313529 181.043535 414.689499 182.667566 
C 413.065468 184.291596 412.152969 186.494564 412.152969 188.79129 
C 412.152969 191.088016 413.065468 193.290984 414.689499 194.915015 
C 416.313529 196.539045 418.516497 197.451544 420.813223 197.451544 
z
" clip-path="url(#p3a8156ebbd)" style="fill: #0000ff; stroke: #000000"/>
    <path d="M 420.813223 216.264827 
C 423.109949 216.264827 425.312917 215.352328 426.936947 213.728297 
C 428.560978 212.104266 429.473477 209.901299 429.473477 207.604573 
C 429.473477 205.307846 428.560978 203.104879 426.936947 201.480848 
C 425.312917 199.856818 423.109949 198.944319 420.813223 198.944319 
C 418.516497 198.944319 416.313529 199.856818 414.689499 201.480848 
C 413.065468 203.104879 412.152969 205.307846 412.152969 207.604573 
C 412.152969 209.901299 413.065468 212.104266 414.689499 213.728297 
C 416.313529 215.352328 418.516497 216.264827 420.813223 216.264827 
z
" clip-path="url(#p3a8156ebbd)" style="fill: #0000ff; stroke: #000000"/>
    <path d="M 420.813223 235.078109 
C 423.109949 235.078109 425.312917 234.16561 426.936947 232.54158 
C 428.560978 230.917549 429.473477 228.714581 429.473477 226.417855 
C 429.473477 224.121129 428.560978 221.918162 426.936947 220.294131 
C 425.312917 218.6701 423.109949 217.757601 420.813223 217.757601 
C 418.516497 217.757601 416.313529 218.6701 414.689499 220.294131 
C 413.065468 221.918162 412.152969 224.121129 412.152969 226.417855 
C 412.152969 228.714581 413.065468 230.917549 414.689499 232.54158 
C 416.313529 234.16561 418.516497 235.078109 420.813223 235.078109 
z
" clip-path="url(#p3a8156ebbd)" style="fill: #0000ff; stroke: #000000"/>
   </g>
  </g>
 </g>
 <defs>
  <clipPath id="p3a8156ebbd">
   <rect x="0" y="0" width="460.8" height="345.6"/>
  </clipPath>
 </defs>
</svg>
